<svg xmlns="http://www.w3.org/2000/svg" xmlns:svg="http://www.w3.org/2000/svg" id="svg61" width="150mm" height="567.04" version="1.1" viewBox="0 0 150 150.029"><metadata id="metadata58"/><g id="layer1" transform="translate(-139.79271,-23.812931)"><path id="path2518" d="m 214.77921,23.812931 c -6.67768,16.371894 -10.70535,27.081088 -18.14008,42.966294 4.55839,4.831931 10.15367,10.458956 19.24033,16.814137 -9.76903,-4.019887 -16.43274,-8.055768 -21.41263,-12.243843 -9.51503,19.854618 -24.42236,48.136571 -54.67412,102.492841 23.77686,-13.7268 42.20829,-22.18948 59.38549,-25.41866 -0.73759,-3.17239 -1.15697,-6.60392 -1.12849,-10.18438 l 0.027,-0.76172 c 0.37727,-15.23321 8.30158,-26.94758 17.68869,-26.15218 9.38712,0.79535 16.6836,13.79651 16.30632,29.02976 -0.0711,2.86639 -0.39428,5.62384 -0.95918,8.18136 16.99071,3.32366 35.22501,11.76476 58.68017,25.30582 -4.62489,-8.51473 -8.75301,-16.19019 -12.69521,-23.50027 -6.20963,-4.81287 -12.68659,-11.07685 -25.89827,-17.85797 9.08098,2.35961 15.58281,5.08198 20.65089,8.12495 C 231.76849,65.984281 228.52272,56.068194 214.7779,23.812931 Z" style="fill:#1793d1;fill-opacity:1;fill-rule:evenodd;stroke:none;stroke-width:.90277213"/></g></svg>