<svg xmlns="http://www.w3.org/2000/svg" xmlns:svg="http://www.w3.org/2000/svg" id="svg4390" width="103.936" height="155.624" version="1.1" viewBox="0 0 27.5 41.176"><metadata id="metadata4387"/><g id="layer1" transform="translate(-41.858413,-113.4821)"><g id="g4574" transform="matrix(0.07759251,0,0,0.07759251,-77.152305,25.01257)"><g id="g4485"><path style="opacity:1;fill:#c12766;fill-opacity:1;stroke:none;stroke-width:3;stroke-miterlimit:4;stroke-dasharray:none;stroke-opacity:1" id="path5019-02-9" d="m 1849.1387,640.35252 -96.8242,20.55802 -66.2158,-73.57316 30.6083,-94.13118 96.8242,-20.55802 66.2158,73.57316 z" transform="rotate(12.164872,-2147.1665,1015.4518)"/><path style="opacity:1;fill:#3e489f;fill-opacity:1;stroke:none;stroke-width:15;stroke-miterlimit:4;stroke-dasharray:none;stroke-opacity:1" id="path5019-0-5-1" d="m 1849.1387,640.35252 -96.8242,20.55802 -66.2158,-73.57316 30.6083,-94.13118 96.8242,-20.55802 66.2158,73.57316 z" transform="rotate(12.164872,-2646.5347,326.24275)"/><path style="opacity:1;fill:#714099;fill-opacity:1;stroke:none;stroke-width:3;stroke-miterlimit:4;stroke-dasharray:none;stroke-opacity:1" id="path5019-4-1-2" d="m 1849.1387,640.35252 -96.8242,20.55802 -66.2158,-73.57316 30.6083,-94.13118 96.8242,-20.55802 66.2158,73.57316 z" transform="rotate(12.164872,-2992.004,1100.8634)"/><path style="opacity:1;fill:#78932c;fill-opacity:1;stroke:none;stroke-width:3;stroke-miterlimit:4;stroke-dasharray:none;stroke-opacity:1" id="path5019-0-4-9-8" d="m 1849.1387,640.35252 -96.8242,20.55802 -66.2158,-73.57316 30.6083,-94.13118 96.8242,-20.55802 66.2158,73.57316 z" transform="rotate(12.164872,-1806.9433,240.68453)"/><path style="opacity:1;fill:#cf242a;fill-opacity:1;stroke:none;stroke-width:3;stroke-miterlimit:4;stroke-dasharray:none;stroke-opacity:1" id="path5019-0-0-7-9" d="m 1849.1387,640.35252 -96.8242,20.55802 -66.2158,-73.57316 30.6083,-94.13118 96.8242,-20.55802 66.2158,73.57316 z" transform="rotate(12.164872,-1307.4426,925.6185)"/><circle style="opacity:1;fill:#fff;fill-opacity:1;stroke:none;stroke-width:3;stroke-miterlimit:4;stroke-dasharray:none;stroke-opacity:1" id="path5553" cx="1789.146" cy="1226.056" r="15"/><circle style="opacity:1;fill:#fff;fill-opacity:1;stroke:none;stroke-width:3;stroke-miterlimit:4;stroke-dasharray:none;stroke-opacity:1" id="path5553-1" cx="1633.597" cy="1315.933" r="15"/><circle style="opacity:1;fill:#fff;fill-opacity:1;stroke:none;stroke-width:3;stroke-miterlimit:4;stroke-dasharray:none;stroke-opacity:1" id="path5553-3" cx="1632.773" cy="1494.778" r="15"/><circle style="opacity:1;fill:#fff;fill-opacity:1;stroke:none;stroke-width:3;stroke-miterlimit:4;stroke-dasharray:none;stroke-opacity:1" id="path5553-7" cx="1788.248" cy="1584.971" r="15"/><path style="fill:none;fill-rule:evenodd;stroke:#fff;stroke-width:5;stroke-linecap:butt;stroke-linejoin:miter;stroke-miterlimit:4;stroke-dasharray:none;stroke-opacity:1" id="path5592" d="m 1779.6707,1230.2435 -136.1985,78.0316"/><path style="fill:none;fill-rule:evenodd;stroke:#fff;stroke-width:5;stroke-linecap:butt;stroke-linejoin:miter;stroke-miterlimit:4;stroke-dasharray:none;stroke-opacity:1" id="path5592-7" d="m 1633.0288,1327.6519 0.4593,156.9674"/><path style="fill:none;fill-rule:evenodd;stroke:#fff;stroke-width:5;stroke-linecap:butt;stroke-linejoin:miter;stroke-miterlimit:4;stroke-dasharray:none;stroke-opacity:1" id="path5592-7-1" d="m 1643.8179,1501.3152 134.9535,80.1658"/><circle style="opacity:1;fill:#fff;fill-opacity:1;stroke:none;stroke-width:3;stroke-miterlimit:4;stroke-dasharray:none;stroke-opacity:1" id="path5553-70" cx="1789.22" cy="1405.024" r="15"/><path style="fill:none;fill-rule:evenodd;stroke:#fff;stroke-width:5;stroke-linecap:butt;stroke-linejoin:miter;stroke-miterlimit:4;stroke-dasharray:none;stroke-opacity:1" id="path5592-7-7" d="m 1788.6675,1236.6097 0.4593,156.9674"/><path style="fill:none;fill-rule:evenodd;stroke:#fff;stroke-width:5;stroke-linecap:butt;stroke-linejoin:miter;stroke-miterlimit:4;stroke-dasharray:none;stroke-opacity:1" id="path5592-7-4" d="m 1789.5345,1416.5263 0.4593,156.9674"/><path style="fill:none;fill-rule:evenodd;stroke:#fff;stroke-width:5;stroke-linecap:butt;stroke-linejoin:miter;stroke-miterlimit:4;stroke-dasharray:none;stroke-opacity:1" id="path5592-5" d="m 1779.9013,1410.6415 -136.1985,78.0316"/><path style="fill:none;fill-rule:evenodd;stroke:#fff;stroke-width:5;stroke-linecap:butt;stroke-linejoin:miter;stroke-miterlimit:4;stroke-dasharray:none;stroke-opacity:1" id="path5592-7-1-3" d="m 1644.3253,1322.5128 134.9535,80.1658"/></g></g></g></svg>