<svg xmlns="http://www.w3.org/2000/svg" xmlns:xlink="http://www.w3.org/1999/xlink" width="288.09" height="217" preserveAspectRatio="xMidYMid meet" version="1.1" viewBox="-0.333 -1 292.086 221"><defs><path id="a6i78UWRW5" d="M161.5 74.83L127.87 63.6L127.87 14.97L161.55 24.94L161.5 74.83"/><path id="c1kSBIZSmk" d="M170.28 24.94L203.95 14.97L203.83 63.57L170.28 74.83L170.28 24.94"/><path id="f2C7jVbD0O" d="M197.09 9.7L165.71 0L134.73 9.7L165.75 18.01L197.09 9.7"/><path id="b3wlRdjpNf" d="M246.31 74.83L212.68 63.6L212.68 14.97L246.35 24.94L246.31 74.83"/><path id="c6WqZeXWHv" d="M255.08 24.94L288.75 14.97L288.64 63.57L255.08 74.83L255.08 24.94"/><path id="b2HTNUfPC" d="M281.89 9.7L250.51 0L219.54 9.7L250.56 18.01L281.89 9.7"/><path id="m49ORF42U" d="M34.34 96.03L0.67 86.05L0.67 134.69L34.3 145.91L34.34 96.03"/><path id="f1RDQfOHjD" d="M43.07 96.03L76.74 86.05L76.62 134.66L43.07 145.91L43.07 96.03"/><path id="a194LFvtNE" d="M69.88 80.79L38.5 71.09L7.53 80.79L38.54 89.1L69.88 80.79"/><path id="b5elu9AInk" d="M119.1 145.91L85.47 134.69L85.47 86.05L119.14 96.03L119.1 145.91"/><path id="c4eqlFk4NP" d="M127.87 96.03L161.55 86.05L161.43 134.66L127.87 145.91L127.87 96.03"/><path id="a1LgrdZCg1" d="M154.69 80.79L123.3 71.09L92.33 80.79L123.35 89.1L154.69 80.79"/><path id="ar9tHB3jz" d="M76.7 217L43.07 205.78L43.07 157.14L76.74 167.11L76.7 217"/><path id="a7bimAJdvo" d="M85.47 167.11L119.14 157.14L119.03 205.74L85.47 217L85.47 167.11"/><path id="a46ujOx2SR" d="M112.28 151.87L80.9 142.17L49.93 151.87L80.95 160.19L112.28 151.87"/></defs><g><g><use fill="#f68d11" fill-opacity="1" opacity="1" xlink:href="#a6i78UWRW5"/><g><use fill-opacity="0" stroke="#000" stroke-opacity="0" stroke-width="1" opacity="1" xlink:href="#a6i78UWRW5"/></g></g><g><use fill="#f68d11" fill-opacity="1" opacity="1" xlink:href="#c1kSBIZSmk"/><g><use fill-opacity="0" stroke="#000" stroke-opacity="0" stroke-width="1" opacity="1" xlink:href="#c1kSBIZSmk"/></g></g><g><use fill="#f68d11" fill-opacity="1" opacity="1" xlink:href="#f2C7jVbD0O"/><g><use fill-opacity="0" stroke="#000" stroke-opacity="0" stroke-width="1" opacity="1" xlink:href="#f2C7jVbD0O"/></g></g><g><use fill="#f68d11" fill-opacity="1" opacity="1" xlink:href="#b3wlRdjpNf"/><g><use fill-opacity="0" stroke="#000" stroke-opacity="0" stroke-width="1" opacity="1" xlink:href="#b3wlRdjpNf"/></g></g><g><use fill="#f68d11" fill-opacity="1" opacity="1" xlink:href="#c6WqZeXWHv"/><g><use fill-opacity="0" stroke="#000" stroke-opacity="0" stroke-width="1" opacity="1" xlink:href="#c6WqZeXWHv"/></g></g><g><use fill="#f68d11" fill-opacity="1" opacity="1" xlink:href="#b2HTNUfPC"/><g><use fill-opacity="0" stroke="#000" stroke-opacity="0" stroke-width="1" opacity="1" xlink:href="#b2HTNUfPC"/></g></g><g><use fill="#f68d11" fill-opacity="1" opacity="1" xlink:href="#m49ORF42U"/><g><use fill-opacity="0" stroke="#000" stroke-opacity="0" stroke-width="1" opacity="1" xlink:href="#m49ORF42U"/></g></g><g><use fill="#f68d11" fill-opacity="1" opacity="1" xlink:href="#f1RDQfOHjD"/><g><use fill-opacity="0" stroke="#000" stroke-opacity="0" stroke-width="1" opacity="1" xlink:href="#f1RDQfOHjD"/></g></g><g><use fill="#f68d11" fill-opacity="1" opacity="1" xlink:href="#a194LFvtNE"/><g><use fill-opacity="0" stroke="#000" stroke-opacity="0" stroke-width="1" opacity="1" xlink:href="#a194LFvtNE"/></g></g><g><use fill="#f68d11" fill-opacity="1" opacity="1" xlink:href="#b5elu9AInk"/><g><use fill-opacity="0" stroke="#000" stroke-opacity="0" stroke-width="1" opacity="1" xlink:href="#b5elu9AInk"/></g></g><g><use fill="#f68d11" fill-opacity="1" opacity="1" xlink:href="#c4eqlFk4NP"/><g><use fill-opacity="0" stroke="#000" stroke-opacity="0" stroke-width="1" opacity="1" xlink:href="#c4eqlFk4NP"/></g></g><g><use fill="#f68d11" fill-opacity="1" opacity="1" xlink:href="#a1LgrdZCg1"/><g><use fill-opacity="0" stroke="#000" stroke-opacity="0" stroke-width="1" opacity="1" xlink:href="#a1LgrdZCg1"/></g></g><g><use fill="#f68d11" fill-opacity="1" opacity="1" xlink:href="#ar9tHB3jz"/><g><use fill-opacity="0" stroke="#000" stroke-opacity="0" stroke-width="1" opacity="1" xlink:href="#ar9tHB3jz"/></g></g><g><use fill="#f68d11" fill-opacity="1" opacity="1" xlink:href="#a7bimAJdvo"/><g><use fill-opacity="0" stroke="#000" stroke-opacity="0" stroke-width="1" opacity="1" xlink:href="#a7bimAJdvo"/></g></g><g><use fill="#f68d11" fill-opacity="1" opacity="1" xlink:href="#a46ujOx2SR"/><g><use fill-opacity="0" stroke="#000" stroke-opacity="0" stroke-width="1" opacity="1" xlink:href="#a46ujOx2SR"/></g></g></g></svg>