<svg xmlns="http://www.w3.org/2000/svg" xmlns:svg="http://www.w3.org/2000/svg" id="svg2" width="491.75" height="313.531" version="1.1"><metadata id="metadata7"/><g id="layer1" transform="translate(-104.125,-479.59658)"><g id="g5142" transform="translate(19.230768,-616.00002)"><path id="rect2816-3-4-9" d="m 403.76923,1095.5966 c -9.15391,0 -16.65625,7.5023 -16.65625,16.6562 v 37.8438 c 0,4.3415 1.71768,8.3069 4.46875,11.2812 -2.76023,2.9762 -4.46875,6.9315 -4.46875,11.2813 v 37.8125 c 0,2.3716 0.50081,4.6362 1.40625,6.6875 h -56.90625 c -0.0422,-4e-4 -0.0827,0 -0.125,0 h -28.9375 c -9.15391,0 -16.65625,7.5335 -16.65625,16.6875 v 37.8125 c 0,4.3497 1.70852,8.3289 4.46875,11.3125 -2.76023,2.9835 -4.46875,6.9315 -4.46875,11.2812 v 37.8125 c 0,9.1539 7.50234,16.6875 16.65625,16.6875 h 28.9375 c 0.0423,0 0.0827,3e-4 0.125,0 h 56.59375 c -0.70153,1.8356 -1.09375,3.8021 -1.09375,5.875 v 37.8438 c 0,9.1539 7.50234,16.6562 16.65625,16.6562 h 28.9375 c 9.15391,0 16.6875,-7.5023 16.6875,-16.6562 v -37.8438 c 0,-4.3384 -1.71385,-8.2764 -4.46875,-11.25 2.76431,-2.9829 4.46875,-6.9657 4.46875,-11.3125 v -37.8125 c 0,-9.1539 -7.53359,-16.6875 -16.6875,-16.6875 h -28.9375 c -9.15391,0 -16.65625,7.5336 -16.65625,16.6875 v 37.8125 c 0,2.3717 0.50081,4.6362 1.40625,6.6875 h -41.78125 c 0.90544,-2.0513 1.40625,-4.3158 1.40625,-6.6875 v -37.8125 c 0,-4.3497 -1.70852,-8.2977 -4.46875,-11.2812 2.76023,-2.9836 4.46875,-6.9628 4.46875,-11.3125 v -37.8125 c 0,-2.3781 -0.52745,-4.6319 -1.4375,-6.6875 h 86 c 9.15391,0 16.6875,-7.5336 16.6875,-16.6875 v -37.8125 c 0,-4.3468 -1.70444,-8.3058 -4.46875,-11.2813 2.7549,-2.9736 4.46875,-6.9428 4.46875,-11.2812 v -37.8438 c 0,-9.1539 -7.53359,-16.6562 -16.6875,-16.6562 z m 0,10 h 28.9375 c 3.78689,0 6.6875,2.8693 6.6875,6.6562 v 37.8438 c 0,2.8401 -1.61786,5.1717 -4.03125,6.1562 -7.68259,0 -23.07591,0 -34.21875,0 -2.4046,-0.9845 -4.03125,-3.3161 -4.03125,-6.1562 v -37.8438 c 0,-3.7869 2.86936,-6.6562 6.65625,-6.6562 z m -2.65625,60.9375 c 10.65135,0 21.0594,0 34.28125,0 2.39803,0.991 4,3.2958 4,6.125 v 37.8125 c 0,3.7868 -2.90061,6.6875 -6.6875,6.6875 h -28.9375 c -3.78689,0 -6.65625,-2.9007 -6.65625,-6.6875 v -37.8125 c 0,-2.8296 1.61024,-5.1343 4,-6.125 z m -98.5625,60.625 h 28.9375 c 3.78689,0 6.65625,2.9006 6.65625,6.6875 v 37.8125 c 0,2.815 -1.59941,5.1481 -3.96875,6.1562 -12.60602,0 -22.20604,0 -34.3125,0 -2.36934,-1.0081 -3.96875,-3.3412 -3.96875,-6.1562 v -37.8125 c 0,-3.7869 2.86936,-6.6875 6.65625,-6.6875 z m 101.21875,60.4062 h 28.9375 c 3.78689,0 6.6875,2.9006 6.6875,6.6875 v 37.8125 c 0,2.8139 -1.59212,5.1475 -3.96875,6.1563 -4.97179,0 -22.88367,0 -34.34375,0 -2.36934,-1.0081 -3.96875,-3.3413 -3.96875,-6.1563 v -37.8125 c 0,-3.7869 2.86936,-6.6875 6.65625,-6.6875 z m -103.875,0.5625 c 11.73997,0 21.26394,0 34.25,0 2.38358,1.0022 4,3.2999 4,6.125 v 37.8125 c 0,3.7869 -2.86936,6.6875 -6.65625,6.6875 h -28.9375 c -3.78689,0 -6.65625,-2.9006 -6.65625,-6.6875 v -37.8125 c 0,-2.8251 1.61642,-5.1228 4,-6.125 z m 135.5,60.4063 c 2.3912,0.9938 4,3.2694 4,6.0937 v 37.8438 c 0,3.7869 -2.90061,6.6562 -6.6875,6.6562 h -28.9375 c -3.78689,0 -6.65625,-2.8693 -6.65625,-6.6562 v -37.8438 c 0,-2.6035 1.35931,-4.7731 3.4375,-5.875 4.78043,0 23.58929,-0.2187 34.84375,-0.2187 z" style="color:#000;font-style:normal;font-variant:normal;font-weight:400;font-stretch:normal;font-size:medium;line-height:normal;font-family:'Bitstream Vera Sans';-inkscape-font-specification:'Bitstream Vera Sans';text-indent:0;text-align:start;text-decoration:none;text-decoration-line:none;letter-spacing:normal;word-spacing:normal;text-transform:none;writing-mode:lr-tb;direction:ltr;text-anchor:start;display:inline;overflow:visible;visibility:visible;fill:#000;fill-opacity:1;stroke:none;stroke-width:10;marker:none;enable-background:accumulate"/><path id="rect3770-1-1-5-8-3-8-7-4" d="m 490.58173,1286.1278 c -9.10413,0.035 -16.55935,7.5208 -16.59375,16.625 v 8.3125 4.5313 24.9375 60.0625 h 24.9375 v -60.0625 h 14.71875 v -24.9375 h -14.71875 v -4.5313 h 14.71875 v -24.9375 h -14.71875 z" style="fill:#000;fill-opacity:1;stroke:none"/><path id="rect3770-1-1-5-2-1-1-3-4-7-7" d="m 543.36298,1315.5966 c -9.10413,0.035 -16.55935,7.5208 -16.59375,16.625 v 8.3125 l 20.71875,35.125 h -20.71875 v 24.9375 h 33.28125 c 9.1041,-0.035 16.55975,-7.5208 16.59375,-16.625 v -8.3125 l -20.6875,-35.125 h 20.6875 v -24.9375 z" style="fill:#000;fill-opacity:1;stroke:none"/><path id="rect3770-1-6-1-8-0-7-8" d="m 190.05048,1225.7216 c -9.1041,0.035 -16.55975,7.5208 -16.59375,16.625 v 12.8437 h -12.46875 v 24.9375 h 12.46875 v 60.0938 h 24.9375 v -60.0938 h 12.46875 v -24.9375 h -12.46875 v -29.4687 z" style="fill:#000;fill-opacity:1;stroke:none"/><path id="rect3770-1-1-1-1-0-7-3-3" d="m 245.23798,1255.1903 c -9.10413,0.035 -16.55935,7.5208 -16.59375,16.625 v 8.3125 60.0938 h 24.9375 v -60.0938 h 14.71875 v -24.9375 z" style="fill:#000;fill-opacity:1;stroke:none"/><path id="rect3770-7-4-8-63-3-5" d="m 101.48798,1225.7216 c -9.104126,0.035 -16.559346,7.5208 -16.593746,16.625 v 97.875 h 17.156246 7.75 25.53125 c 9.1041,-0.035 16.55975,-7.5208 16.59375,-16.625 v -8.3125 -44.2188 -15.875 h -42.125 v -29.4687 z m 8.3125,54.4062 h 17.1875 v 35.1563 h -17.1875 z" style="fill:#000;fill-opacity:1;stroke:none"/></g></g></svg>