<svg xmlns="http://www.w3.org/2000/svg" xmlns:svg="http://www.w3.org/2000/svg" id="svg38" width="714.541" height="512.739" version="1.1" viewBox="-5.724 -43.601 714.541 512.739"><metadata id="metadata44"/><path id="path18" d="m 701.77002,149.956 c -1.938,-1.539 -20.029,-15.199 -58.181,-15.199 -10.074,0.044 -20.127,0.908 -30.061,2.584 -7.384,-50.612 -49.228,-75.288 -51.104,-76.395 l -10.245,-5.908 -6.738,9.723 c -8.438,13.061 -14.598,27.459 -18.214,42.582 -6.831,28.891 -2.677,56.027 11.999,79.226 -17.722,9.876 -46.151,12.307 -51.904,12.522 H 16.643017 c -12.2940002,0.017 -22.2700002,9.952 -22.3370002,22.245 -0.549,41.234 6.43699995,82.222 20.6140002,120.946 16.214,42.521 40.336,73.842 71.719,93.01 35.167003,21.537 92.302003,33.844 157.067003,33.844 29.258,0.092 58.461,-2.556 87.226,-7.907 39.986,-7.342 78.463,-21.318 113.839,-41.352 29.149,-16.88 55.383,-38.354 77.688,-63.596 37.29,-42.213 59.505,-89.226 76.026,-131.007 2.215,0 4.431,0 6.584,0 40.828,0 65.935,-16.338 79.78,-30.029 9.201,-8.732 16.384,-19.369 21.045,-31.167 l 2.923,-8.553 z" style="fill:#0091e2;fill-opacity:1"/><path id="path20" d="m 60.271017,185.308 h 63.073003 c 3.042,0 5.507,-2.466 5.507,-5.507 v 0 -56.182 c 0.017,-3.042 -2.435,-5.521 -5.476,-5.538 -0.01,0 -0.021,0 -0.031,0 H 60.271017 c -3.042,0 -5.507,2.466 -5.507,5.507 0,0.01 0,0.021 0,0.031 V 179.8 c 0,3.042 2.465,5.508 5.507,5.508 v 0" style="fill:#0091e2;fill-opacity:1"/><path id="path22" d="m 147.18902,185.308 h 63.073 c 3.042,0 5.507,-2.466 5.507,-5.507 v 0 -56.182 c 0.017,-3.042 -2.435,-5.521 -5.477,-5.538 -0.01,0 -0.021,0 -0.031,0 h -63.073 c -3.059,0 -5.538,2.479 -5.538,5.538 V 179.8 c 0.018,3.047 2.492,5.508 5.539,5.508" style="fill:#0091e2;fill-opacity:1"/><path id="path24" d="m 235.42902,185.308 h 63.073 c 3.042,0 5.507,-2.466 5.507,-5.507 v 0 -56.182 c 0.017,-3.042 -2.435,-5.521 -5.477,-5.538 -0.01,0 -0.021,0 -0.031,0 h -63.073 c -3.042,0 -5.507,2.466 -5.507,5.507 0,0.01 0,0.021 0,0.031 V 179.8 c 0.001,3.042 2.467,5.508 5.508,5.508 v 0" style="fill:#0091e2;fill-opacity:1"/><path id="path26" d="m 322.62402,185.308 h 63.073 c 3.047,0 5.521,-2.46 5.538,-5.507 v -56.182 c 0,-3.059 -2.479,-5.538 -5.538,-5.538 v 0 h -63.073 c -3.042,0 -5.507,2.466 -5.507,5.507 0,0.01 0,0.021 0,0.031 V 179.8 c 0,3.042 2.466,5.508 5.507,5.508 v 0" style="fill:#0091e2;fill-opacity:1"/><path id="path28" d="m 147.18902,104.482 h 63.073 c 3.046,-0.017 5.507,-2.492 5.507,-5.538 V 42.763 c 0,-3.042 -2.466,-5.507 -5.507,-5.507 v 0 h -63.073 c -3.046,0 -5.521,2.46 -5.538,5.507 v 56.181 c 0.017,3.052 2.486,5.521 5.538,5.538" style="fill:#0091e2;fill-opacity:1"/><path id="path30" d="m 235.42902,104.482 h 63.073 c 3.046,-0.017 5.507,-2.492 5.507,-5.538 V 42.763 c 0,-3.042 -2.466,-5.507 -5.507,-5.507 v 0 h -63.073 c -3.042,0 -5.507,2.466 -5.507,5.507 v 0 56.181 c 0,3.046 2.461,5.521 5.507,5.538" style="fill:#0091e2;fill-opacity:1"/><path id="path32" d="m 322.62402,104.482 h 63.073 c 3.052,-0.017 5.521,-2.486 5.538,-5.538 V 42.763 c -0.017,-3.047 -2.491,-5.507 -5.538,-5.507 h -63.073 c -3.042,0 -5.507,2.466 -5.507,5.507 v 0 56.181 c 0,3.046 2.461,5.521 5.507,5.538" style="fill:#0091e2;fill-opacity:1"/><path id="path34" d="m 322.62402,23.626 h 63.073 c 3.047,0 5.521,-2.461 5.538,-5.507 v -56.213 c -0.017,-3.047 -2.491,-5.507 -5.538,-5.507 h -63.073 c -3.042,0 -5.507,2.465 -5.507,5.507 v 0 56.212 c 0,3.042 2.466,5.508 5.507,5.508" style="fill:#0091e2;fill-opacity:1"/><path id="path36" d="m 410.58802,185.308 h 63.073 c 3.047,0 5.521,-2.46 5.538,-5.507 v -56.182 c 0,-3.059 -2.479,-5.538 -5.538,-5.538 v 0 h -63.073 c -3.041,0 -5.507,2.466 -5.507,5.507 0,0.01 0,0.021 0,0.031 V 179.8 c 0,3.042 2.466,5.508 5.507,5.508" style="fill:#0091e2;fill-opacity:1"/></svg>