<svg xmlns="http://www.w3.org/2000/svg" xmlns:svg="http://www.w3.org/2000/svg" id="Ebene_1" width="387.225" height="116.5" x="0" y="0" version="1.1" viewBox="0 0 387.225 116.5" xml:space="preserve"><metadata id="metadata31"/><style id="style2" type="text/css">.st0{fill:#4b9bd7}</style><g id="g24" transform="translate(-43.25,-0.025)"><path id="path20" d="M 344.1,3.1 427.7,67 c 3.7,2.8 3.7,8.3 0,11.1 l -46.6,35.7 c -3.6,2.7 -8.6,2.7 -12.1,0 L 296,58.1 c -3.6,-2.7 -8.5,-2.7 -12.1,0 l -74.8,57 c -2.5,1.9 -6,1.9 -8.5,0 l -5.4,-4.1 c -2.6,-2 -2.6,-5.9 0,-7.9 L 325.9,3.1 c 5.4,-4.1 12.8,-4.1 18.2,0 z" class="st0" style="fill:#4b9bd7"/><path id="path22" d="M 247.7,44.1 194.1,3.1 C 188.7,-1 181.3,-1 175.9,3.1 L 45.2,103 c -2.6,2 -2.6,5.9 0,7.9 l 5.4,4.1 c 2.5,1.9 6,1.9 8.5,0 l 64.8,-49.4 c 3.6,-2.7 8.6,-2.7 12.1,0 l 42.9,32.8 c 3.6,2.7 8.6,2.7 12.1,0 l 56.7,-43.3 c 3.7,-2.7 3.7,-8.2 0,-11 z" class="st0" style="fill:#4b9bd7"/></g></svg>