<svg xmlns="http://www.w3.org/2000/svg" xmlns:svg="http://www.w3.org/2000/svg" id="Layer_1" width="57" height="64.006" data-name="Layer 1" version="1.1" viewBox="0 0 57 64.006"><metadata id="metadata43"/><defs id="defs4"><style id="style2">.cls-1{fill:#343741}.cls-1,.cls-2,.cls-3{fill-rule:evenodd}.cls-2{fill:#fec514}.cls-3{fill:#00bfb3}</style></defs><title id="title6">Elastic Search Color Lockup</title><path id="path34" d="m 0,32.002779 a 32,32 0 0 0 1.05,8 H 40 a 8,8 0 0 0 8,-8 v 0 a 8,8 0 0 0 -8,-8 H 1.09 a 32,32 0 0 0 -1.09,8 z" class="cls-1" style="fill:#343741;fill-rule:evenodd"/><path id="path36" d="m 53.89,15.322779 a 29.59,29.59 0 0 0 3.11,-3.32 31.92,31.92 0 0 0 -53.67,6 h 43.73 a 10.07,10.07 0 0 0 6.83,-2.68 z" class="cls-2" style="fill:#fec514;fill-rule:evenodd"/><path id="path38" d="M 47.06,46.002779 H 3.33 a 31.92,31.92 0 0 0 53.67,6 29.59,29.59 0 0 0 -3.11,-3.32 10.07,10.07 0 0 0 -6.83,-2.68 z" class="cls-3" style="fill:#00bfb3;fill-rule:evenodd"/></svg>