<svg xmlns="http://www.w3.org/2000/svg" xmlns:svg="http://www.w3.org/2000/svg" id="svg2" width="56.25" height="56.25" version="1.1" xml:space="preserve"><defs id="defs6"><clipPath id="clipPath16"><path id="path18" d="M 0,0 0,45 45,45 45,0 0,0"/></clipPath></defs><g id="g10" transform="matrix(1.25,0,0,-1.25,0,56.25)"><g id="g12"><g id="g14" clip-path="url(#clipPath16)"><g id="g20"><g id="g22"><g id="g24"><path id="path26" d="m 9.347,6.027 0,32.946 c 0,0.843 0.684,1.527 1.527,1.527 l 13.349,0 11.43,-11.43 0,-23.043 C 35.653,5.184 34.969,4.5 34.126,4.5 l -23.252,0 c -0.843,0 -1.527,0.684 -1.527,1.527 z" style="fill:#2b2b2b;fill-opacity:1;fill-rule:evenodd;stroke:none"/></g></g><g id="g28"><g id="g30"><path id="path32" d="m 24.223,40.5 11.43,-11.43 -9.903,0 c -0.843,0 -1.527,0.684 -1.527,1.527 l 0,9.903 z" style="fill:#525252;fill-opacity:1;fill-rule:evenodd;stroke:none"/></g></g><g id="g34"><g id="g36"><path id="path38" d="m 15.299,12.002 2.252,-3.34 -0.941,0 -1.83,2.767 -0.57,-0.578 0,-2.189 -0.772,0 0,5.514 0.772,0 0,-2.349 2.248,2.349 0.94,0 -2.099,-2.174 z" style="fill:#e6e6e6;fill-opacity:1;fill-rule:nonzero;stroke:none"/></g></g><g id="g40"><g id="g42"><path id="path44" d="m 21.351,9.318 0,-0.656 -3.289,0 0,5.514 3.227,0 0,-0.648 -2.455,0 0,-1.647 2.318,0 0,-0.648 -2.318,0 0,-1.915 2.517,0 z" style="fill:#e6e6e6;fill-opacity:1;fill-rule:nonzero;stroke:none"/></g></g><g id="g46"><g id="g48"><path id="path50" d="m 25.425,14.176 0.874,0 -1.919,-3.204 0,-2.31 -0.777,0 0,2.31 -1.916,3.204 0.87,0 1.432,-2.533 1.436,2.533 z" style="fill:#e6e6e6;fill-opacity:1;fill-rule:nonzero;stroke:none"/></g></g></g></g></g></g></svg>