<svg xmlns="http://www.w3.org/2000/svg" xmlns:xlink="http://www.w3.org/1999/xlink" id="Layer_1" x="0" y="0" version="1.1" viewBox="0 0 73 83" style="enable-background:new 0 0 73 83" xml:space="preserve"><style type="text/css">.st0{fill:#009639}.st1{fill:#007a33}.st2{fill:#215732}.st3{fill:#fff}</style><path d="M36.5,0.5c-0.9,0-1.7,0.2-2.5,0.7L2.8,19.2c-1.5,0.9-2.5,2.5-2.5,4.3v36.1c0,0.9,0.2,1.7,0.7,2.5l35.5-20.5	C36.5,41.5,36.5,14.9,36.5,0.5z" class="st0"/><path d="M1,62c0.4,0.7,1,1.4,1.8,1.8L34,81.9c1.5,0.9,3.4,0.9,4.9,0l31.3-18.1c0.8-0.4,1.4-1.1,1.8-1.8L36.5,41.5	C36.5,41.5,13.5,54.8,1,62z" class="st1"/><path d="M72,62c0.4-0.7,0.7-1.6,0.7-2.5l0-36.1c0-1.8-0.9-3.4-2.5-4.3L39,1.1c-0.8-0.4-1.6-0.7-2.5-0.7l0,41	C36.5,41.5,59.5,54.8,72,62z" class="st2"/><g><path d="M28.4,52.5c1.1,1.3,2.9,2,4.4,2c2.2,0,3.7-1.4,3.7-3.1l0-22.3c0-1.7-1.4-3.1-3.1-3.1h-0.1 c-1.8,0-3.2,1.5-3.2,3.2L30,45c0,0.1-0.1,0.1-0.2,0.1L15.6,27.9c-1.1-1.3-2.9-2-4.4-2c-2.2,0-3.7,1.4-3.7,3.1l0,22.3 c0,1.7,1.4,3.1,3.1,3.1h0.1c1.8,0,3.2-1.5,3.2-3.2l0-15.8c0-0.1,0.1-0.1,0.2-0.1L28.4,52.5z" class="st3"/><g><path d="M64,37.6h-7.4c0,0-0.1,0-0.1-0.1v-7.4c0-1.7-1.4-3.1-3.1-3.1h0c-1.7,0-3.1,1.4-3.1,3.1v6v0.7v0.4 c0,0.2-0.2,0.4-0.4,0.4h-0.5h-0.6h-6.3c-1.7,0-3.1,1.4-3.1,3.1v0c0,1.7,1.4,3.1,3.1,3.1h7.7c0,0,0.1,0,0.1,0.1v7.4 c0,1.7,1.4,3.1,3.1,3.1h0c1.7,0,3.1-1.4,3.1-3.1v-6v-0.7v-0.4c0-0.2,0.2-0.4,0.4-0.4h0.2H58h6c1.7,0,3.1-1.4,3.1-3.1v0 C67.1,39,65.7,37.6,64,37.6z" class="st3"/></g></g></svg>