<svg xmlns="http://www.w3.org/2000/svg" xmlns:svg="http://www.w3.org/2000/svg" id="svg41" width="164.63" height="164.142" version="1.1" xml:space="preserve" style="clip-rule:evenodd;fill-rule:evenodd;stroke-linejoin:round;stroke-miterlimit:1.41420996"><metadata id="metadata45"/><g id="g25" transform="translate(-80.685,-80.928983)"><g id="Layer_1"><g id="g22"><path d="m 86.156,107.313 c -3.385,1.954 -5.471,5.567 -5.471,9.476 v 123.696 c 0,2.074 1.444,3.868 3.47,4.312 2.026,0.443 4.088,-0.584 4.954,-2.469 L 136.274,139.726 129.307,82.4 Z" style="fill:#273d8d;fill-rule:nonzero" id="path10"/><path d="m 85.1,244.899 c -0.313,0 -0.629,-0.033 -0.945,-0.102 -2.026,-0.444 -3.47,-2.238 -3.47,-4.312 V 116.789 c 0,-3.909 2.086,-7.522 5.471,-9.476 l 43.151,-24.913 6.967,57.326 -47.165,102.602 c -0.731,1.591 -2.314,2.571 -4.009,2.571 z" style="fill:url(#_Linear1)" id="path12"/><path d="m 239.843,218.687 c 3.386,-1.955 5.472,-5.568 5.472,-9.477 V 85.515 c 0,-2.074 -1.444,-3.869 -3.469,-4.312 -2.026,-0.443 -4.089,0.584 -4.954,2.469 l -47.165,102.601 6.967,57.327 z" style="fill:#1196b3;fill-rule:nonzero" id="path14"/><path d="m 196.694,243.6 -6.967,-57.327 47.165,-102.601 c 0.731,-1.592 2.313,-2.572 4.009,-2.572 0.313,0 0.629,0.034 0.945,0.103 2.025,0.443 3.469,2.238 3.469,4.312 V 209.21 c 0,3.909 -2.086,7.522 -5.472,9.477 z" style="fill:url(#_Linear2)" id="path16"/><path d="m 143.296,84.963 c -3.404,-4.168 -9.328,-5.254 -13.989,-2.563 l -43.151,24.912 c -3.385,1.955 -5.471,5.568 -5.471,9.477 v -0.277 c 0,-1.278 0.669,-2.462 1.763,-3.123 1.093,-0.66 2.453,-0.7 3.583,-0.105 L 219.069,183.3 c 0.77,0.405 1.718,0.212 2.269,-0.461 0.55,-0.674 0.55,-1.641 0,-2.315 z" style="fill:#273d8d;fill-rule:nonzero" id="path18"/><path d="m 182.705,241.037 c 3.405,4.168 9.328,5.253 13.989,2.563 l 43.149,-24.913 c 3.386,-1.955 5.472,-5.568 5.472,-9.477 v 0.277 c 0,1.278 -0.668,2.463 -1.763,3.123 -1.092,0.66 -2.452,0.7 -3.584,0.105 L 106.932,142.7 c -0.769,-0.405 -1.718,-0.212 -2.268,0.461 -0.55,0.673 -0.55,1.641 -0.001,2.314 z" style="fill:#26c0d2;fill-rule:nonzero" id="path20"/></g></g></g><defs id="defs39"><linearGradient id="_Linear1" x1="0" x2="1" y1="0" y2="0" gradientTransform="matrix(0,-162.5,162.5,0,108.48,244.899)" gradientUnits="userSpaceOnUse"><stop offset="0" style="stop-color:#1b2356;stop-opacity:1" id="stop27"/><stop offset="1" style="stop-color:#020021;stop-opacity:1" id="stop29"/></linearGradient><linearGradient id="_Linear2" x1="0" x2="1" y1="0" y2="0" gradientTransform="matrix(0,162.5,-162.5,0,217.522,81.1004)" gradientUnits="userSpaceOnUse"><stop offset="0" style="stop-color:#1196b3;stop-opacity:1" id="stop32"/><stop offset=".3" style="stop-color:#1587a2;stop-opacity:1" id="stop34"/><stop offset="1" style="stop-color:#101234;stop-opacity:1" id="stop36"/></linearGradient></defs></svg>