<svg xmlns="http://www.w3.org/2000/svg" xmlns:xlink="http://www.w3.org/1999/xlink" id="svg1" width="64" height="64"><metadata><rdf:RDF xmlns:cc="http://web.resource.org/cc/" xmlns:dc="http://purl.org/dc/elements/1.1/" xmlns:rdf="http://www.w3.org/1999/02/22-rdf-syntax-ns#"><cc:Work><dc:title>Part of the Flat Icon Collection (Wed Aug 25 23:23:49 2004)</dc:title><dc:description/><dc:subject><rdf:Bag><rdf:li>hash</rdf:li><rdf:li/><rdf:li>application</rdf:li><rdf:li>computer</rdf:li><rdf:li>icons</rdf:li><rdf:li>theme</rdf:li></rdf:Bag></dc:subject><dc:publisher><cc:Agent rdf:about="http://www.openclipart.org"><dc:title>Danny Allen</dc:title></cc:Agent></dc:publisher><dc:creator><cc:Agent><dc:title>Danny Allen</dc:title></cc:Agent></dc:creator><dc:rights><cc:Agent><dc:title>Danny Allen</dc:title></cc:Agent></dc:rights><dc:date/><dc:format>image/svg+xml</dc:format><dc:type rdf:resource="http://purl.org/dc/dcmitype/StillImage"/><cc:license rdf:resource="http://web.resource.org/cc/PublicDomain"/><dc:language>en</dc:language></cc:Work><cc:License rdf:about="http://web.resource.org/cc/PublicDomain"><cc:permits rdf:resource="http://web.resource.org/cc/Reproduction"/><cc:permits rdf:resource="http://web.resource.org/cc/Distribution"/><cc:permits rdf:resource="http://web.resource.org/cc/DerivativeWorks"/></cc:License></rdf:RDF></metadata><path id="path1098" d="M 29.010934 44.985569 L 29.010934 53.892435 M 6.1075651 54.146917 L 52.932231 54.146917" style="fill:none;fill-rule:evenodd;stroke:#333;stroke-opacity:1;stroke-width:3.125;stroke-linejoin:round;stroke-linecap:round;fill-opacity:.75;stroke-dasharray:none" transform="translate(0.763446,0.000000)"/><path id="path1099" d="M -43.770884 15.847394 A 2.417578 2.417578 0 1 0 -48.606039,15.847394 A 2.41758 2.41758 0 1 0 -43.7709 15.8474 L -46.188461 15.847394 z" style="font-size:12;fill:#333;fill-opacity:1;fill-rule:evenodd;stroke:#333;stroke-width:1pt;stroke-opacity:1" transform="matrix(1.421053,0.000000,0.000000,1.421053,95.53786,30.99073)"/><path id="path741" d="M 58.842297 36.966930 A 27.351770 27.351770 0 1 0 4.138756,36.966930 A 27.3518 27.3518 0 1 0 58.8423 36.9669 L 31.490526 36.966930 z" style="font-size:12;fill:#b3b3b3;fill-rule:evenodd;stroke:#333;stroke-width:3.2048094;stroke-linejoin:round" transform="matrix(0.780078,0.000000,0.000000,0.780078,5.575885,-4.101354)"/><path id="path743" d="M 30.002906,29.760235 L 30.002906,10.059281" style="fill:none;fill-opacity:.75;fill-rule:evenodd;stroke:#4c4c4c;stroke-width:6.25;stroke-linecap:round;stroke-linejoin:round;stroke-dasharray:none" transform="matrix(0.800000,0.000000,0.000000,0.800000,6.028188,0.704503)"/><path id="path744" d="M 31.163145,30.131938 L 44.346370,37.743277" style="fill:none;fill-opacity:.75;fill-rule:evenodd;stroke:#4c4c4c;stroke-width:6.25;stroke-linecap:round;stroke-linejoin:round;stroke-dasharray:none" transform="matrix(0.800000,0.000000,0.000000,0.800000,6.028188,0.704503)"/><path id="path742" d="M 31.490526 32.288338 A 2.339296 2.339296 0 1 0 26.811934,32.288338 A 2.3393 2.3393 0 1 0 31.4905 32.2883 L 29.151230 32.288338 z" style="font-size:12;fill:#333;fill-rule:evenodd;stroke:#333;stroke-width:3.025594;stroke-linecap:round;stroke-linejoin:round" transform="matrix(0.826284,0.000000,0.000000,0.826284,6.053736,-1.943624)"/></svg>