<svg xmlns="http://www.w3.org/2000/svg" xmlns:svg="http://www.w3.org/2000/svg" id="svg8" width="217.828" height="217.828" version="1.1" viewBox="0 0 57.634 57.634"><metadata id="metadata5"/><g id="layer1" transform="translate(-51.044151,-76.341817)"><g id="layer1-2" transform="matrix(0.28222223,0,0,0.28222223,184.65521,3.3902348)"><path id="path4164" d="m -308.4957,287.8248 c -2.11875,2.13375 -5.55875,2.1275 -7.68125,0 -2.125,-2.11875 -2.125,-5.57125 0,-7.69 2.11875,-2.13125 5.565,-2.13125 7.68375,0 2.13,2.125 2.13,5.57 -0.002,7.69 m -1.19125,151.7238 c -3.7075,3.71125 -9.72125,3.71125 -13.43375,0 -3.70875,-3.70875 -3.70875,-9.725 0,-13.43875 3.71,-3.71 9.72625,-3.71 13.43375,0 3.71375,3.71375 3.70875,9.725 0,13.43875 m -31.74125,-18.305 c -3.7075,-3.71375 -3.7075,-9.73 0,-13.4425 3.70875,-3.70875 9.7275,-3.70875 13.4375,0 3.715,3.7125 3.7125,9.72875 0.002,13.4425 -3.7125,3.70625 -9.73125,3.70625 -13.44,0 m -4.86875,18.305 c -3.70875,3.70875 -9.72875,3.70875 -13.435,0 -3.71625,-3.71375 -3.71625,-9.725 0,-13.435 3.70625,-3.71375 9.72375,-3.71375 13.435,0 3.71375,3.71 3.71125,9.72125 0,13.435 m -31.745,-18.305 c -3.70875,-3.71375 -3.70875,-9.73 0,-13.4425 3.71125,-3.70875 9.7275,-3.70875 13.4375,0.002 3.71375,3.71 3.71375,9.73 0,13.44 -3.71,3.70625 -9.72625,3.70625 -13.4375,0 m -4.87,18.305 c -3.70625,3.70875 -9.7275,3.70875 -13.435,-0.004 -3.71375,-3.71625 -3.71125,-9.72125 0,-13.435 3.7075,-3.71 9.72875,-3.71 13.43625,0 3.71125,3.71375 3.715,9.725 -10e-4,13.43875 m -31.7425,-18.3125 c -3.71,-3.70625 -3.71,-9.725 -10e-4,-13.435 3.715,-3.7125 9.72875,-3.7125 13.435,0 3.7125,3.7125 3.7125,9.72875 0,13.4425 -3.70375,3.7025 -9.72,3.70625 -13.43375,-0.007 m -4.86875,18.30875 c -3.70875,3.7125 -9.72625,3.7125 -13.4325,0 -3.71375,-3.71625 -3.71375,-9.7275 0,-13.44125 3.70625,-3.7075 9.72375,-3.7075 13.4325,0 3.70625,3.71375 3.70625,9.73125 0,13.44125 m -14.625,-159.41 c 2.13,-2.13125 5.56375,-2.13125 7.6925,0 2.12,2.1175 2.12,5.57 0,7.6925 -2.12875,2.13125 -5.5725,2.13125 -7.69,0 -2.1225,-2.12125 -2.12625,-5.57375 -0.002,-7.6925 m 11.80125,11.805 c 2.11875,-2.1225 5.55875,-2.1225 7.68875,0.002 2.12,2.13125 2.12,5.57 0,7.7 -2.13,2.12375 -5.57,2.12375 -7.69125,0 -2.1225,-2.13 -2.12875,-5.56875 0.002,-7.7025 m 11.79375,11.8175 c 2.12125,-2.13 5.56625,-2.13 7.6875,0 2.1275,2.12375 2.12125,5.5725 -10e-4,7.69375 -2.12,2.1275 -5.565,2.1275 -7.68125,0 -2.12875,-2.12125 -2.12875,-5.5725 -0.005,-7.69375 m 0.005,-23.6225 c 2.1225,-2.12625 5.56125,-2.13125 7.68125,0.002 2.12875,2.1225 2.1225,5.56875 0,7.69 -2.12,2.13125 -5.565,2.125 -7.68125,0 -2.12875,-2.1225 -2.12625,-5.57375 0,-7.6925 m 11.7875,35.43 c 2.12875,-2.1225 5.57,-2.1275 7.69,0.002 2.12625,2.12375 2.12625,5.57375 0,7.70125 -2.12,2.12375 -5.56,2.12375 -7.69,0 -2.11625,-2.1275 -2.12,-5.5775 0,-7.70375 m 0.005,-23.625 c 2.12375,-2.12 5.56,-2.1225 7.685,0.002 2.12375,2.13125 2.1275,5.57 0,7.7 -2.12,2.12375 -5.56125,2.12375 -7.69,0 -2.11625,-2.13 -2.11625,-5.575 0.005,-7.7025 m 11.795,-11.805 c 2.12125,-2.12625 5.56,-2.13125 7.68875,0 2.12,2.11875 2.12,5.57 0,7.6925 -2.12625,2.13125 -5.5675,2.12 -7.68875,0 -2.12375,-2.12125 -2.12375,-5.5675 0,-7.6925 m 11.7975,35.4325 c 2.12125,-2.13 5.565,-2.125 7.6875,-0.002 2.125,2.12875 2.125,5.57625 0,7.7025 -2.1225,2.12125 -5.56375,2.12125 -7.6875,0 -2.125,-2.12625 -2.13,-5.57375 0,-7.7 m 0,-23.625 c 2.12375,-2.125 5.565,-2.125 7.69,0 2.125,2.125 2.12,5.57 -0.002,7.7 -2.1225,2.12375 -5.56625,2.12375 -7.6875,0 -2.1225,-2.13 -2.125,-5.575 0,-7.7 m 11.79375,-11.8075 c 2.1325,-2.13125 5.56625,-2.13125 7.6875,0 2.12375,2.11875 2.12375,5.57125 0.002,7.6925 -2.12375,2.125 -5.56,2.13125 -7.69,0 -2.12125,-2.12125 -2.12,-5.57375 0,-7.6925 m 3.6375,109.36 c 3.70625,-3.71 9.72625,-3.71 13.435,0 3.71375,3.71125 3.71375,9.7275 0,13.43875 -3.71125,3.71125 -9.72875,3.7075 -13.435,0 -3.71625,-3.71125 -3.71625,-9.72625 0,-13.43875 m 4.0525,-54.4175 c -2.12375,2.13375 -5.565,2.125 -7.6875,0 -2.1225,-2.1275 -2.1225,-5.57375 -0.002,-7.70375 2.125,-2.12 5.56625,-2.12 7.69,0.01 2.12125,2.12 2.12125,5.5675 0,7.69375 m 0,-23.62875 c -2.12375,2.13 -5.565,2.13 -7.69,0.003 -2.12,-2.12125 -2.12125,-5.57 0,-7.69375 2.125,-2.12875 5.56625,-2.12875 7.6875,0 2.12375,2.12125 2.12375,5.5725 0.002,7.69125 m -19.48375,27.74375 c 2.12125,-2.12375 5.565,-2.12375 7.6875,0 2.125,2.125 2.125,5.575 -0.001,7.7025 -2.12125,2.11875 -5.565,2.11875 -7.69375,-10e-4 -2.1175,-2.12625 -2.1175,-5.57375 0.007,-7.70125 m -2.87875,31.99625 c 3.71125,-3.71 9.7275,-3.71 13.4375,0.002 3.70875,3.7075 3.70875,9.72375 0,13.4325 -3.71,3.71125 -9.72625,3.71125 -13.4375,0.002 -3.70875,-3.70875 -3.71125,-9.72125 0,-13.4375 m -4.87,18.30625 c 3.7125,3.71125 3.71,9.7275 0,13.43875 -3.70625,3.7075 -9.73,3.7075 -13.435,-0.002 -3.71625,-3.71125 -3.71125,-9.725 0,-13.43625 3.705,-3.7075 9.72875,-3.71 13.435,0 m -4.05,-85.7375 c 2.125,-2.13 5.56375,-2.13 7.69,0 2.12,2.12375 2.12,5.5725 0,7.69125 -2.12625,2.13 -5.565,2.13 -7.68875,0.003 -2.11875,-2.1225 -2.12375,-5.57 -0.001,-7.69375 m 0,23.62625 c 2.1225,-2.13 5.56375,-2.13 7.69,-0.007 2.12,2.1275 2.12,5.575 0,7.70875 -2.12625,2.12375 -5.5675,2.12625 -7.69,-0.007 -2.1225,-2.12625 -2.1175,-5.57375 0,-7.69375 m 35.39125,-11.81875 c 2.125,-2.1225 5.56375,-2.1275 7.69125,0 2.11625,2.12875 2.11625,5.57625 -0.002,7.7025 -2.125,2.12125 -5.56375,2.125 -7.68875,10e-4 -2.1225,-2.1275 -2.1225,-5.575 0,-7.70375 m 0,-23.625 c 2.125,-2.1225 5.56375,-2.12 7.68875,0 2.11875,2.1275 2.11875,5.5725 0,7.7025 -2.125,2.12125 -5.56375,2.12375 -7.68875,-0.006 -2.1225,-2.12375 -2.1225,-5.56875 0,-7.69625 m 11.79375,11.8175 c 2.1275,-2.13 5.57625,-2.13 7.68875,0 2.1225,2.12125 2.12,5.5725 0,7.69125 -2.1175,2.13 -5.56125,2.13 -7.68875,0 -2.1225,-2.12 -2.12,-5.57 0,-7.69125 m 0.002,-23.6225 c 2.125,-2.13125 5.56875,-2.13375 7.68625,0 2.1225,2.11875 2.1225,5.565 0,7.69 -2.1175,2.13375 -5.56125,2.13375 -7.68625,0 -2.1225,-2.12 -2.1225,-5.57125 0,-7.69 m 11.8,11.805 c 2.12125,-2.12 5.57125,-2.1225 7.69,0 2.11875,2.1275 2.11875,5.5725 0,7.69625 -2.125,2.1275 -5.56875,2.13 -7.69,0 -2.12375,-2.12375 -2.12375,-5.5625 0,-7.69625 m 58.7625,-17.9 c 0,-8.585 -6.96,-15.55 -15.55375,-15.55 h -173.1088 c -8.58625,0 -15.55125,6.965 -15.55125,15.55 v 59.41 h 23.19125 L -473.425,387.7386 v 59.41375 c 0,8.58625 6.965,15.55125 15.55125,15.55125 h 173.1088 c 8.59375,0 15.55375,-6.965 15.55375,-15.55125 V 387.7386 h -23.19 l 23.19,-54.28875 z" style="fill:#2a667f"/></g></g></svg>