<svg xmlns="http://www.w3.org/2000/svg" xmlns:xlink="http://www.w3.org/1999/xlink" id="Layer_1" x="0" y="0" version="1.1" viewBox="0 0 50 50" style="enable-background:new 0 0 50 50" xml:space="preserve"><style type="text/css">.st0{fill:#d7d8d9}.st1{fill:#ea1b22}.st2{fill:#fff}</style><g id="Layer_1_1_"><path d="M35.2,3.3C35.2,3.3,35.1,3.2,35.2,3.3C35.1,3.2,35.2,3.3,35.2,3.3L35.2,3.3z" class="st0"/><g id="Layer_1_2_"><g id="Layer_1_3_"><g><circle cx="25" cy="25" r="24" class="st1"/></g></g></g><path d="M31.2,14.2H18.8C12.8,14.2,8,19.1,8,25s4.8,10.7,10.8,10.7h12.5C37.2,35.8,42,30.9,42,25S37.2,14.2,31.2,14.2z M31,32H19c-3.8,0-7-3.1-7-6.9s3.1-7,7-7h12c3.8,0,7,3.1,7,7C37.9,28.9,34.8,32,31,32z" class="st2"/></g></svg>