<svg xmlns="http://www.w3.org/2000/svg" xmlns:svg="http://www.w3.org/2000/svg" width="300" height="300"><g id="XMLID_27_"><path id="XMLID_28_" d="m70,125c-13.785,0 -25,11.215 -25,25s11.215,25 25,25c13.785,0 25,-11.215 25,-25s-11.215,-25 -25,-25z"/><path id="XMLID_30_" d="m150,125c-13.785,0 -25,11.215 -25,25s11.215,25 25,25c13.785,0 25,-11.215 25,-25s-11.215,-25 -25,-25z"/><path id="XMLID_71_" d="m230,125c-13.785,0 -25,11.215 -25,25s11.215,25 25,25c13.785,0 25,-11.215 25,-25s-11.215,-25 -25,-25z"/></g></svg>