<svg xmlns="http://www.w3.org/2000/svg" xmlns:svg="http://www.w3.org/2000/svg" id="svg42" width="24.091" height="25.471" version="1.1" viewBox="0 0 24.091 25.471"><metadata id="metadata46"/><title id="title2">Artboard Copy</title><desc id="desc4">Created with Sketch.</desc><g id="home" style="fill:none;fill-rule:evenodd;stroke:none;stroke-width:1" transform="translate(-0.04416291,-0.38650419)"><g id="Artboard-Copy"><g id="Group-3"><g id="RabbitMQ_logo" style="fill-rule:nonzero"><path id="Shape" d="M 22.91503,10.722731 H 15.390774 C 14.789055,10.650951 14.330865,10.120888 14.330865,9.4969602 V 1.6012317 c 0,-0.67362164 -0.546517,-1.21472751 -1.214481,-1.21472751 h -2.633213 c -0.6734845,0 -1.2144802,0.54662736 -1.2144802,1.21472751 V 9.5797825 C 9.2355687,10.181625 8.7387359,10.667516 8.1425366,10.722731 H 6.1717667 C 5.5921285,10.650951 5.1449791,10.16506 5.1063365,9.5797825 V 1.6012317 c 0,-0.67362164 -0.546516,-1.21472751 -1.21448,-1.21472751 H 1.2586429 c -0.67348434,0 -1.21447999,0.54662736 -1.21447999,1.21472751 V 11.937458 24.642403 c 0,0.673622 0.54651602,1.214727 1.21447999,1.214727 h 2.6332136 6.5913145 2.633213 9.804166 c 0.673485,0 1.214481,-0.546627 1.214481,-1.214727 V 11.937458 c -0.0055,-0.673621 -0.546516,-1.214727 -1.220001,-1.214727 z m -3.466788,8.712908 c 0,0.673622 -0.546516,1.214728 -1.21448,1.214728 h -2.633214 c -0.673484,0 -1.21448,-0.546628 -1.21448,-1.214728 V 16.95097 c 0,-0.673622 0.546516,-1.214728 1.21448,-1.214728 h 2.633214 c 0.673484,0 1.21448,0.546627 1.21448,1.214728 z" style="fill:#f60"/></g></g></g></g></svg>