<svg xmlns="http://www.w3.org/2000/svg" xmlns:svg="http://www.w3.org/2000/svg" id="Layer_1" width="111.953" height="175.402" x="0" y="0" version="1.1" viewBox="0 0 111.953 175.402" xml:space="preserve"><metadata id="metadata48"/><style id="style2" type="text/css">.st12{fill:#fefefe}.st423{fill:#06262c}.st424{fill:#209fbc}.st425{fill:#209ebb}.st426{fill:#f0f2f2}.st427{fill:#3f585d}.st428{fill:#09282e}</style><g id="JeZY93.tif" transform="translate(-86.91822,-28.898017)"><g id="g40"><g id="g10"><path id="path8" d="m 119,204.1 c -12.3,-9.5 -13.9,-23.5 -15.5,-37.4 -0.6,-5.1 -0.3,-10.4 -0.2,-15.6 0.1,-4.6 2,-9.4 -3.2,-12.7 -0.9,-0.6 -1.6,-2.9 -1.2,-3.8 2.5,-5.8 -2.1,-7.5 -5.3,-10.2 -6.8,-5.6 -8.3,-11.6 -5,-19.7 1.3,-3.2 2,-6.3 2.4,-9.7 1.6,-12.6 8.1,-22.5 18.5,-29.6 2.9,-2 4.3,-4 4.9,-7.4 3.5,-21.1 19,-32.3 38.2,-28.3 8.3,1.7 13.8,7 17.7,14.1 2.1,3.7 3.3,7.7 4.3,11.8 3,12 6,23.8 16.3,32.4 7.9,6.6 9.4,15.9 6.8,25.8 -2.5,9.4 -2.1,18.9 -1.2,28.5 1.6,18 -3.5,34.5 -12.1,49.9 -4.5,8.1 -11.1,8.9 -18.3,2.7 -9.7,-8.3 -9.7,-8.3 -20.9,-2.5 -7.8,4.1 -15.2,9 -23.7,11.9 -0.9,-0.2 -1.7,-0.2 -2.5,-0.2 z" class="st423" style="fill:#06262c"/></g><g id="g14"><path id="path12" d="m 175.2,177 c -2.1,-1.5 -3.6,-0.2 -5.3,0.4 -13.7,5.6 -27.3,11.3 -40.1,18.8 -9,5.3 -12.2,4.3 -16.8,-5.3 -7.1,-14.6 -7.1,-30.1 -5.9,-45.8 0.2,-2.3 1.5,-2.2 3.1,-2.5 14.1,-3.1 19,-10.1 16.7,-24.5 -0.3,-1.6 0.2,-2.7 0.7,-3.9 6.1,-14.6 3.1,-28.4 -8.6,-38.5 -1.7,-1.4 -2,-2.9 -2.1,-4.6 -0.3,-7.9 0.3,-15.7 3.7,-22.9 4.8,-10.5 12.8,-16.6 24.9,-16.5 12,0 20.7,5.9 23.5,16.9 6.5,26 20,49.8 23,76.8 2.4,21.5 1.9,42.4 -9.1,61.9 -2,3.6 -3.7,8.1 -9,7.5 -5.5,-0.7 -8.1,-5.6 -11.4,-9.1 -1.6,-1.7 1,-2 2,-2.6 3.4,-2.1 7.9,-2.5 10.7,-6.1 z" class="st12" style="fill:#fefefe"/></g><g id="g18"><path id="path16" d="m 114.3,107.5 c 1.4,3.6 4.1,4.8 5.9,6.8 5,5.3 5.9,10.3 2.7,16.4 -2.6,5 -10.3,9.3 -15.4,8.6 -2.4,-0.3 -4.4,-1.4 -5,-3.7 -0.5,-1.7 -1.2,-3.8 1.5,-5 2.7,-1.2 0.7,-2.5 -0.5,-3.3 -2.6,-1.9 -5.5,-3.4 -7.9,-5.4 -7,-5.7 -7.6,-14 -1.2,-20.4 4.5,-4.5 9.7,-8.3 14.5,-12.6 2.7,-2.4 4.1,-1.4 5.2,1.4 1.5,3.9 3.3,7.7 4.4,11.7 1,3.1 3.4,7.8 -4.2,5.5 z" class="st12" style="fill:#fefefe"/></g><g id="g22"><path id="path20" d="m 94.1,95.6 c 2.5,-11.8 7.7,-21 17.8,-27.4 4.3,11.8 0.4,14.9 -17.8,27.4 z" class="st424" style="fill:#209fbc"/></g><g id="g26"><path id="path24" d="m 124.2,112.9 c -1.8,-0.9 -1.7,-2.1 -1.5,-3.3 1.1,-8.4 -2.1,-15.7 -6.3,-22.6 -1.5,-2.5 -2.7,-4.6 0.3,-6.5 3.5,-2.3 3.9,1.8 4.9,3.2 6.8,9.5 7.7,20.6 2.6,29.2 z" class="st425" style="fill:#209ebb"/></g><g id="g30"><path id="path28" d="m 186.7,89.1 c 8.2,6.7 11.2,14.7 7.1,25.1 -2.5,-8.6 -4.8,-16.9 -7.1,-25.1 z" class="st426" style="fill:#f0f2f2"/></g><g id="g34"><path id="path32" d="m 167.3,49.5 c -3,0.2 -5.3,0.4 -7.6,0.5 2.7,-4.7 3.3,-4.8 7.6,-0.5 z" class="st427" style="fill:#3f585d"/></g><g id="g38"><path id="path36" d="m 137.7,54 c 2.5,-4.2 4.9,-4.1 8.5,-1.6 -3.1,0.6 -5.3,1 -8.5,1.6 z" class="st428" style="fill:#09282e"/></g></g></g></svg>