<svg xmlns="http://www.w3.org/2000/svg" xmlns:svg="http://www.w3.org/2000/svg" id="svg8" width="29.392" height="16.299" version="1.1" viewBox="0 0 7.777 4.312"><metadata id="metadata5"/><g id="layer1" transform="translate(-13.099546,-19.788833)"><g aria-label="SMS" style="font-style:normal;font-variant:normal;font-weight:700;font-stretch:normal;font-size:5.64444447px;line-height:1.25;font-family:AgencyFB;-inkscape-font-specification:'AgencyFB Bold';letter-spacing:0;word-spacing:0;fill:#000;fill-opacity:1;stroke:none;stroke-width:.26458332" id="text817"><path d="m 15.176702,23.706078 q 0,0.191911 -0.1016,0.293511 -0.1016,0.1016 -0.287867,0.1016 h -1.298222 q -0.186267,0 -0.287867,-0.1016 -0.1016,-0.1016 -0.1016,-0.293511 v -1.027289 h 0.643467 v 0.880533 h 0.790222 v -0.846667 l -1.292578,-1.224844 q -0.07902,-0.07338 -0.112889,-0.146756 -0.02822,-0.07338 -0.02822,-0.197555 v -0.959556 q 0,-0.191911 0.1016,-0.293511 0.1016,-0.1016 0.287867,-0.1016 h 1.298222 q 0.186267,0 0.287867,0.1016 0.1016,0.1016 0.1016,0.287867 v 0.9652 h -0.643467 v -0.8128 h -0.790222 v 0.778933 l 1.292578,1.2192 q 0.07902,0.07902 0.107244,0.1524 0.03387,0.07338 0.03387,0.197556 v 1.027289 z" style="stroke-width:.26458332" id="path819"/><path d="m 17.677367,24.101189 v -2.127956 q 0,-0.06209 0,-0.141111 0.0056,-0.07902 0.01693,-0.1524 0.01129,-0.08467 0.02258,-0.174978 l -0.5588,2.201334 H 16.8307 l -0.5588,-2.201334 q 0.0056,0.09031 0.01693,0.174978 0.01129,0.07338 0.01693,0.1524 0.0056,0.07902 0.0056,0.141111 v 2.127956 h -0.620888 v -4.312356 h 0.6096 l 0.677333,2.381956 q 0.0056,0.01693 0.0056,0.0508 0,0.02822 0.0056,0.06209 0,0.03951 0.0056,0.08467 0,-0.04516 0.0056,-0.08467 0,-0.06773 0.01129,-0.112889 l 0.677333,-2.381956 h 0.6096 v 4.312356 z" style="stroke-width:.26458332" id="path821"/><path d="m 20.876268,23.706078 q 0,0.191911 -0.1016,0.293511 -0.1016,0.1016 -0.287867,0.1016 h -1.298222 q -0.186267,0 -0.287867,-0.1016 -0.1016,-0.1016 -0.1016,-0.293511 v -1.027289 h 0.643467 v 0.880533 h 0.790222 v -0.846667 l -1.292578,-1.224844 q -0.07902,-0.07338 -0.112889,-0.146756 -0.02822,-0.07338 -0.02822,-0.197555 v -0.959556 q 0,-0.191911 0.1016,-0.293511 0.1016,-0.1016 0.287867,-0.1016 h 1.298222 q 0.186267,0 0.287867,0.1016 0.1016,0.1016 0.1016,0.287867 v 0.9652 h -0.643467 v -0.8128 h -0.790222 v 0.778933 l 1.292577,1.2192 q 0.07902,0.07902 0.107245,0.1524 0.03387,0.07338 0.03387,0.197556 v 1.027289 z" style="stroke-width:.26458332" id="path823"/></g></g></svg>